<svg xmlns="http://www.w3.org/2000/svg" viewBox="0 0 280 168" fill="none" role="img" aria-label="UKRSTORENERGY SOLUTIONS">
  <defs>
    <linearGradient id="sGold" x1="70" y1="8" x2="150" y2="78" gradientUnits="userSpaceOnUse">
      <stop offset="0%" stop-color="#F0D9A0"/>
      <stop offset="38%" stop-color="#D4AF61"/>
      <stop offset="72%" stop-color="#A8843A"/>
      <stop offset="100%" stop-color="#C9A45C"/>
    </linearGradient>
    <linearGradient id="sSilver" x1="140" y1="10" x2="220" y2="80" gradientUnits="userSpaceOnUse">
      <stop offset="0%" stop-color="#F2F2F4"/>
      <stop offset="42%" stop-color="#C8C9CE"/>
      <stop offset="100%" stop-color="#8A8B91"/>
    </linearGradient>
    <filter id="sDepth" x="-20%" y="-20%" width="140%" height="140%">
      <feDropShadow dx="0" dy="1.4" stdDeviation="1.3" flood-color="#000" flood-opacity=".45"/>
    </filter>
  </defs>

  <g transform="translate(78 4)" filter="url(#sDepth)">
    <path fill="url(#sGold)" d="M4 4h13.4c.8 0 1.4.6 1.4 1.4V32a11.3 11.3 0 0 0 22.6 0V5.4c0-.8.6-1.4 1.4-1.4H56c.8 0 1.4.6 1.4 1.4V32c0 14.6-11.5 25.4-26.9 25.4S4 46.6 4 32V5.4C4 4.6 4.6 4 5.4 4Z"/>
    <path fill="url(#sGold)" d="M76.4 3.8c10.3 0 17.8 5 19.7 12.7l-12.5 2.6c-.7-2.9-3.4-4.8-7.4-4.8-4.3 0-7 2.2-7 5 0 2.6 2 4.1 8.2 5.5l2.9.7c10.3 2.4 16.1 7.7 16.1 16.3 0 10.3-8.9 17-22.6 17-12.2 0-20.6-5.8-22.6-15.1l12.7-2.5c1 3.8 4.6 6.2 9.8 6.2 5 0 8.2-2.4 8.2-5.8 0-2.9-2.2-4.4-8.6-6l-2.9-.7C59.6 32.6 54 27.1 54 18c0-8.9 8.6-14.2 22.4-14.2Z"/>
    <path fill="url(#sSilver)" d="M69.4 34.1c10.3 2.4 16.1 7.7 16.1 16.3 0 10.3-8.9 17-22.6 17-12.2 0-20.6-5.8-22.6-15.1l12.7-2.5c1 3.8 4.6 6.2 9.8 6.2 5 0 8.2-2.4 8.2-5.8 0-2.9-2.2-4.4-8.6-6l-2.9-.7 8.9-9.4Z"/>
    <rect x="86" y="5.2" width="27.1" height="10.1" rx="1.4" fill="url(#sSilver)"/>
    <rect x="86" y="22.7" width="22.6" height="10.1" rx="1.4" fill="url(#sSilver)"/>
    <rect x="86" y="40.2" width="27.1" height="10.1" rx="1.4" fill="url(#sSilver)"/>
  </g>

  <text x="140" y="118" text-anchor="middle" font-family="Inter, Arial, sans-serif" font-size="18" font-weight="700" letter-spacing="3.2">
    <tspan fill="#C8C9CD">UKRSTOR</tspan><tspan fill="#C9A45C">ENERGY</tspan>
  </text>
  <line x1="28" y1="140" x2="78" y2="140" stroke="#8A8B91" stroke-width=".9"/>
  <text x="140" y="144" text-anchor="middle" font-family="Inter, Arial, sans-serif" font-size="9" font-weight="600" letter-spacing="6.2" fill="#9A9BA0">SOLUTIONS</text>
  <line x1="202" y1="140" x2="252" y2="140" stroke="#8A8B91" stroke-width=".9"/>
</svg>
